<mxfile host="Electron" agent="Mozilla/5.0 (Windows NT 10.0; Win64; x64) AppleWebKit/537.36 (KHTML, like Gecko) draw.io/21.4.0 Chrome/112.0.5615.204 Electron/24.5.1 Safari/537.36" modified="2025-10-21T13:53:03.759Z" version="21.4.0" etag="fO_GNvVCDT8MUXlC9A_a" type="device" pages="3">
  <diagram id="cVeUh3_A2WM-X51wlseu" name="业务架构图">
    <mxGraphModel dx="2058" dy="1188" grid="0" gridSize="10" guides="1" tooltips="1" connect="1" arrows="1" fold="1" page="1" pageScale="1" pageWidth="827" pageHeight="1169" math="0" shadow="0">
      <root>
        <mxCell id="0" />
        <mxCell id="1" parent="0" />
        <mxCell id="NDTbb1fdub4gOZgtGCQw-19" style="edgeStyle=orthogonalEdgeStyle;rounded=0;orthogonalLoop=1;jettySize=auto;html=1;entryX=0.133;entryY=1.05;entryDx=0;entryDy=0;entryPerimeter=0;" parent="1" source="NDTbb1fdub4gOZgtGCQw-2" target="NDTbb1fdub4gOZgtGCQw-12" edge="1">
          <mxGeometry relative="1" as="geometry" />
        </mxCell>
        <mxCell id="NDTbb1fdub4gOZgtGCQw-2" value="access" style="rounded=0;whiteSpace=wrap;html=1;fillColor=#d5e8d4;strokeColor=#82b366;" parent="1" vertex="1">
          <mxGeometry x="170" y="210" width="130" height="40" as="geometry" />
        </mxCell>
        <mxCell id="NDTbb1fdub4gOZgtGCQw-18" style="edgeStyle=orthogonalEdgeStyle;rounded=0;orthogonalLoop=1;jettySize=auto;html=1;entryX=0.5;entryY=1;entryDx=0;entryDy=0;fillColor=#d80073;strokeColor=#A50040;" parent="1" source="NDTbb1fdub4gOZgtGCQw-5" target="NDTbb1fdub4gOZgtGCQw-2" edge="1">
          <mxGeometry relative="1" as="geometry" />
        </mxCell>
        <mxCell id="NDTbb1fdub4gOZgtGCQw-20" style="edgeStyle=orthogonalEdgeStyle;rounded=0;orthogonalLoop=1;jettySize=auto;html=1;entryX=0;entryY=0.5;entryDx=0;entryDy=0;fillColor=#d80073;strokeColor=#A50040;" parent="1" source="NDTbb1fdub4gOZgtGCQw-5" target="NDTbb1fdub4gOZgtGCQw-8" edge="1">
          <mxGeometry relative="1" as="geometry" />
        </mxCell>
        <mxCell id="NDTbb1fdub4gOZgtGCQw-5" value="push" style="rounded=0;whiteSpace=wrap;html=1;" parent="1" vertex="1">
          <mxGeometry x="170" y="340" width="130" height="40" as="geometry" />
        </mxCell>
        <mxCell id="NDTbb1fdub4gOZgtGCQw-17" style="edgeStyle=orthogonalEdgeStyle;rounded=0;orthogonalLoop=1;jettySize=auto;html=1;entryX=0.5;entryY=1;entryDx=0;entryDy=0;fillColor=#d80073;strokeColor=#A50040;" parent="1" source="NDTbb1fdub4gOZgtGCQw-7" target="NDTbb1fdub4gOZgtGCQw-5" edge="1">
          <mxGeometry relative="1" as="geometry" />
        </mxCell>
        <mxCell id="NDTbb1fdub4gOZgtGCQw-7" value="logic" style="rounded=0;whiteSpace=wrap;html=1;" parent="1" vertex="1">
          <mxGeometry x="170" y="480" width="130" height="40" as="geometry" />
        </mxCell>
        <mxCell id="NDTbb1fdub4gOZgtGCQw-8" value="offline" style="rounded=0;whiteSpace=wrap;html=1;" parent="1" vertex="1">
          <mxGeometry x="380" y="340" width="130" height="40" as="geometry" />
        </mxCell>
        <mxCell id="NDTbb1fdub4gOZgtGCQw-25" style="edgeStyle=orthogonalEdgeStyle;rounded=0;orthogonalLoop=1;jettySize=auto;html=1;dashed=1;fillColor=#1ba1e2;strokeColor=#006EAF;" parent="1" source="NDTbb1fdub4gOZgtGCQw-11" target="NDTbb1fdub4gOZgtGCQw-7" edge="1">
          <mxGeometry relative="1" as="geometry" />
        </mxCell>
        <mxCell id="NDTbb1fdub4gOZgtGCQw-11" value="MQ" style="shape=process;whiteSpace=wrap;html=1;backgroundOutline=1;" parent="1" vertex="1">
          <mxGeometry x="535" y="470" width="120" height="60" as="geometry" />
        </mxCell>
        <mxCell id="NDTbb1fdub4gOZgtGCQw-12" value="gateway" style="rounded=0;whiteSpace=wrap;html=1;fillColor=#dae8fc;strokeColor=#6c8ebf;" parent="1" vertex="1">
          <mxGeometry x="170" y="110" width="490" height="40" as="geometry" />
        </mxCell>
        <mxCell id="NDTbb1fdub4gOZgtGCQw-24" style="edgeStyle=orthogonalEdgeStyle;rounded=0;orthogonalLoop=1;jettySize=auto;html=1;entryX=0.5;entryY=0;entryDx=0;entryDy=0;dashed=1;fillColor=#1ba1e2;strokeColor=#006EAF;" parent="1" source="NDTbb1fdub4gOZgtGCQw-21" target="NDTbb1fdub4gOZgtGCQw-11" edge="1">
          <mxGeometry relative="1" as="geometry" />
        </mxCell>
        <mxCell id="NDTbb1fdub4gOZgtGCQw-21" value="access" style="rounded=0;whiteSpace=wrap;html=1;fillColor=#d5e8d4;strokeColor=#82b366;" parent="1" vertex="1">
          <mxGeometry x="530" y="210" width="130" height="40" as="geometry" />
        </mxCell>
        <mxCell id="NDTbb1fdub4gOZgtGCQw-23" value="" style="endArrow=classic;html=1;rounded=0;entryX=0.5;entryY=0;entryDx=0;entryDy=0;fillColor=#1ba1e2;strokeColor=#006EAF;" parent="1" target="NDTbb1fdub4gOZgtGCQw-21" edge="1">
          <mxGeometry width="50" height="50" relative="1" as="geometry">
            <mxPoint x="595" y="150" as="sourcePoint" />
            <mxPoint x="700" y="320" as="targetPoint" />
          </mxGeometry>
        </mxCell>
        <mxCell id="NDTbb1fdub4gOZgtGCQw-26" value="chat_input" style="text;html=1;align=center;verticalAlign=middle;resizable=0;points=[];autosize=1;strokeColor=none;fillColor=none;" parent="1" vertex="1">
          <mxGeometry x="590" y="370" width="80" height="30" as="geometry" />
        </mxCell>
        <mxCell id="NDTbb1fdub4gOZgtGCQw-27" value="chat_input" style="text;html=1;align=center;verticalAlign=middle;resizable=0;points=[];autosize=1;strokeColor=none;fillColor=none;" parent="1" vertex="1">
          <mxGeometry x="420" y="470" width="80" height="30" as="geometry" />
        </mxCell>
        <mxCell id="NDTbb1fdub4gOZgtGCQw-28" style="edgeStyle=orthogonalEdgeStyle;rounded=0;orthogonalLoop=1;jettySize=auto;html=1;entryX=0.133;entryY=1.05;entryDx=0;entryDy=0;entryPerimeter=0;fillColor=#d80073;strokeColor=#A50040;" parent="1" edge="1">
          <mxGeometry relative="1" as="geometry">
            <mxPoint x="234.5" y="210" as="sourcePoint" />
            <mxPoint x="234.5" y="152" as="targetPoint" />
          </mxGeometry>
        </mxCell>
        <mxCell id="NDTbb1fdub4gOZgtGCQw-29" style="edgeStyle=orthogonalEdgeStyle;rounded=0;orthogonalLoop=1;jettySize=auto;html=1;entryX=0.5;entryY=1;entryDx=0;entryDy=0;fillColor=#d80073;strokeColor=#A50040;" parent="1" edge="1">
          <mxGeometry relative="1" as="geometry">
            <mxPoint x="69" y="335" as="sourcePoint" />
            <mxPoint x="69" y="245" as="targetPoint" />
            <Array as="points">
              <mxPoint x="69" y="253" />
              <mxPoint x="69" y="253" />
            </Array>
          </mxGeometry>
        </mxCell>
        <mxCell id="NDTbb1fdub4gOZgtGCQw-30" value="下行消息" style="text;html=1;align=center;verticalAlign=middle;resizable=0;points=[];autosize=1;strokeColor=none;fillColor=none;" parent="1" vertex="1">
          <mxGeometry x="69" y="276" width="66" height="26" as="geometry" />
        </mxCell>
        <mxCell id="NDTbb1fdub4gOZgtGCQw-32" style="edgeStyle=orthogonalEdgeStyle;rounded=0;orthogonalLoop=1;jettySize=auto;html=1;entryX=0.5;entryY=1;entryDx=0;entryDy=0;fillColor=#1ba1e2;strokeColor=#006EAF;" parent="1" edge="1">
          <mxGeometry relative="1" as="geometry">
            <mxPoint x="69" y="438" as="sourcePoint" />
            <mxPoint x="69" y="348" as="targetPoint" />
            <Array as="points">
              <mxPoint x="69" y="356" />
              <mxPoint x="69" y="356" />
            </Array>
          </mxGeometry>
        </mxCell>
        <mxCell id="NDTbb1fdub4gOZgtGCQw-33" value="上行消息" style="text;html=1;align=center;verticalAlign=middle;resizable=0;points=[];autosize=1;strokeColor=none;fillColor=none;" parent="1" vertex="1">
          <mxGeometry x="69" y="383" width="66" height="26" as="geometry" />
        </mxCell>
        <mxCell id="NDTbb1fdub4gOZgtGCQw-34" style="edgeStyle=orthogonalEdgeStyle;rounded=0;orthogonalLoop=1;jettySize=auto;html=1;entryX=0.133;entryY=1.05;entryDx=0;entryDy=0;entryPerimeter=0;" parent="1" source="NDTbb1fdub4gOZgtGCQw-35" target="NDTbb1fdub4gOZgtGCQw-44" edge="1">
          <mxGeometry relative="1" as="geometry" />
        </mxCell>
        <mxCell id="NDTbb1fdub4gOZgtGCQw-35" value="access" style="rounded=0;whiteSpace=wrap;html=1;fillColor=#d5e8d4;strokeColor=#82b366;" parent="1" vertex="1">
          <mxGeometry x="188" y="759" width="130" height="40" as="geometry" />
        </mxCell>
        <mxCell id="NDTbb1fdub4gOZgtGCQw-36" style="edgeStyle=orthogonalEdgeStyle;rounded=0;orthogonalLoop=1;jettySize=auto;html=1;entryX=0.5;entryY=1;entryDx=0;entryDy=0;fillColor=#008a00;strokeColor=#005700;" parent="1" source="NDTbb1fdub4gOZgtGCQw-38" target="NDTbb1fdub4gOZgtGCQw-35" edge="1">
          <mxGeometry relative="1" as="geometry" />
        </mxCell>
        <mxCell id="NDTbb1fdub4gOZgtGCQw-37" style="edgeStyle=orthogonalEdgeStyle;rounded=0;orthogonalLoop=1;jettySize=auto;html=1;entryX=0;entryY=0.5;entryDx=0;entryDy=0;fillColor=#008a00;strokeColor=#005700;" parent="1" source="NDTbb1fdub4gOZgtGCQw-38" target="NDTbb1fdub4gOZgtGCQw-41" edge="1">
          <mxGeometry relative="1" as="geometry" />
        </mxCell>
        <mxCell id="NDTbb1fdub4gOZgtGCQw-38" value="push" style="rounded=0;whiteSpace=wrap;html=1;" parent="1" vertex="1">
          <mxGeometry x="188" y="889" width="130" height="40" as="geometry" />
        </mxCell>
        <mxCell id="NDTbb1fdub4gOZgtGCQw-41" value="offline" style="rounded=0;whiteSpace=wrap;html=1;" parent="1" vertex="1">
          <mxGeometry x="398" y="889" width="130" height="40" as="geometry" />
        </mxCell>
        <mxCell id="NDTbb1fdub4gOZgtGCQw-42" style="edgeStyle=orthogonalEdgeStyle;rounded=0;orthogonalLoop=1;jettySize=auto;html=1;dashed=1;fillColor=#008a00;strokeColor=#005700;entryX=0.5;entryY=1;entryDx=0;entryDy=0;" parent="1" source="NDTbb1fdub4gOZgtGCQw-43" target="NDTbb1fdub4gOZgtGCQw-38" edge="1">
          <mxGeometry relative="1" as="geometry">
            <mxPoint x="318" y="1049" as="targetPoint" />
          </mxGeometry>
        </mxCell>
        <mxCell id="NDTbb1fdub4gOZgtGCQw-43" value="MQ" style="shape=process;whiteSpace=wrap;html=1;backgroundOutline=1;" parent="1" vertex="1">
          <mxGeometry x="553" y="1019" width="120" height="60" as="geometry" />
        </mxCell>
        <mxCell id="NDTbb1fdub4gOZgtGCQw-44" value="gateway" style="rounded=0;whiteSpace=wrap;html=1;fillColor=#dae8fc;strokeColor=#6c8ebf;" parent="1" vertex="1">
          <mxGeometry x="188" y="659" width="490" height="40" as="geometry" />
        </mxCell>
        <mxCell id="NDTbb1fdub4gOZgtGCQw-45" style="edgeStyle=orthogonalEdgeStyle;rounded=0;orthogonalLoop=1;jettySize=auto;html=1;entryX=0.5;entryY=0;entryDx=0;entryDy=0;dashed=1;fillColor=#008a00;strokeColor=#005700;" parent="1" source="NDTbb1fdub4gOZgtGCQw-46" target="NDTbb1fdub4gOZgtGCQw-43" edge="1">
          <mxGeometry relative="1" as="geometry" />
        </mxCell>
        <mxCell id="NDTbb1fdub4gOZgtGCQw-46" value="access" style="rounded=0;whiteSpace=wrap;html=1;fillColor=#d5e8d4;strokeColor=#82b366;" parent="1" vertex="1">
          <mxGeometry x="548" y="759" width="130" height="40" as="geometry" />
        </mxCell>
        <mxCell id="NDTbb1fdub4gOZgtGCQw-47" value="" style="endArrow=classic;html=1;rounded=0;entryX=0.5;entryY=0;entryDx=0;entryDy=0;fillColor=#008a00;strokeColor=#005700;" parent="1" target="NDTbb1fdub4gOZgtGCQw-46" edge="1">
          <mxGeometry width="50" height="50" relative="1" as="geometry">
            <mxPoint x="613" y="699" as="sourcePoint" />
            <mxPoint x="718" y="869" as="targetPoint" />
          </mxGeometry>
        </mxCell>
        <mxCell id="NDTbb1fdub4gOZgtGCQw-48" value="user_state" style="text;html=1;align=center;verticalAlign=middle;resizable=0;points=[];autosize=1;strokeColor=none;fillColor=none;" parent="1" vertex="1">
          <mxGeometry x="620" y="889" width="74" height="26" as="geometry" />
        </mxCell>
        <mxCell id="NDTbb1fdub4gOZgtGCQw-50" style="edgeStyle=orthogonalEdgeStyle;rounded=0;orthogonalLoop=1;jettySize=auto;html=1;entryX=0.133;entryY=1.05;entryDx=0;entryDy=0;entryPerimeter=0;fillColor=#008a00;strokeColor=#005700;" parent="1" edge="1">
          <mxGeometry relative="1" as="geometry">
            <mxPoint x="252.5" y="759" as="sourcePoint" />
            <mxPoint x="252.5" y="701" as="targetPoint" />
          </mxGeometry>
        </mxCell>
        <mxCell id="NDTbb1fdub4gOZgtGCQw-51" style="edgeStyle=orthogonalEdgeStyle;rounded=0;orthogonalLoop=1;jettySize=auto;html=1;entryX=0.5;entryY=1;entryDx=0;entryDy=0;fillColor=#008a00;strokeColor=#005700;" parent="1" edge="1">
          <mxGeometry relative="1" as="geometry">
            <mxPoint x="87" y="884" as="sourcePoint" />
            <mxPoint x="87" y="794" as="targetPoint" />
            <Array as="points">
              <mxPoint x="87" y="802" />
              <mxPoint x="87" y="802" />
            </Array>
          </mxGeometry>
        </mxCell>
        <mxCell id="NDTbb1fdub4gOZgtGCQw-52" value="用户上线/下线" style="text;html=1;align=center;verticalAlign=middle;resizable=0;points=[];autosize=1;strokeColor=none;fillColor=none;" parent="1" vertex="1">
          <mxGeometry x="89" y="836" width="93" height="26" as="geometry" />
        </mxCell>
        <mxCell id="NDTbb1fdub4gOZgtGCQw-56" value="在线" style="text;html=1;align=center;verticalAlign=middle;resizable=0;points=[];autosize=1;strokeColor=none;fillColor=none;" parent="1" vertex="1">
          <mxGeometry x="227" y="285" width="42" height="26" as="geometry" />
        </mxCell>
        <mxCell id="NDTbb1fdub4gOZgtGCQw-57" value="离线" style="text;html=1;align=center;verticalAlign=middle;resizable=0;points=[];autosize=1;strokeColor=none;fillColor=none;" parent="1" vertex="1">
          <mxGeometry x="310" y="329" width="42" height="26" as="geometry" />
        </mxCell>
        <mxCell id="D4LVCwCwJRpe1eocPsye-3" value="user_state" style="text;html=1;align=center;verticalAlign=middle;resizable=0;points=[];autosize=1;strokeColor=none;fillColor=none;" parent="1" vertex="1">
          <mxGeometry x="420" y="1015" width="74" height="26" as="geometry" />
        </mxCell>
      </root>
    </mxGraphModel>
  </diagram>
  <diagram id="T8XG3j-cZtYXphsDOoxV" name="认证流程">
    <mxGraphModel dx="2058" dy="1188" grid="0" gridSize="10" guides="1" tooltips="1" connect="1" arrows="1" fold="1" page="1" pageScale="1" pageWidth="827" pageHeight="1169" math="0" shadow="0">
      <root>
        <mxCell id="0" />
        <mxCell id="1" parent="0" />
        <mxCell id="kZqQIZWyuM2Vv-hapQI7-2" value="认证服务" style="rounded=0;whiteSpace=wrap;html=1;fillColor=#ffe6cc;strokeColor=#d79b00;" parent="1" vertex="1">
          <mxGeometry x="231" y="320" width="130" height="40" as="geometry" />
        </mxCell>
        <mxCell id="kZqQIZWyuM2Vv-hapQI7-23" style="edgeStyle=orthogonalEdgeStyle;rounded=0;orthogonalLoop=1;jettySize=auto;html=1;entryX=0.5;entryY=0;entryDx=0;entryDy=0;exitX=0.133;exitY=1.065;exitDx=0;exitDy=0;exitPerimeter=0;" parent="1" source="kZqQIZWyuM2Vv-hapQI7-9" target="kZqQIZWyuM2Vv-hapQI7-2" edge="1">
          <mxGeometry relative="1" as="geometry" />
        </mxCell>
        <mxCell id="kZqQIZWyuM2Vv-hapQI7-9" value="gateway" style="rounded=0;whiteSpace=wrap;html=1;fillColor=#dae8fc;strokeColor=#6c8ebf;" parent="1" vertex="1">
          <mxGeometry x="231" y="190" width="490" height="40" as="geometry" />
        </mxCell>
        <mxCell id="kZqQIZWyuM2Vv-hapQI7-11" value="业务服务" style="rounded=0;whiteSpace=wrap;html=1;fillColor=#d5e8d4;strokeColor=#82b366;" parent="1" vertex="1">
          <mxGeometry x="591" y="320" width="130" height="40" as="geometry" />
        </mxCell>
        <mxCell id="kZqQIZWyuM2Vv-hapQI7-12" value="" style="endArrow=classic;html=1;rounded=0;entryX=0.5;entryY=0;entryDx=0;entryDy=0;fillColor=#008a00;strokeColor=#005700;" parent="1" target="kZqQIZWyuM2Vv-hapQI7-11" edge="1">
          <mxGeometry width="50" height="50" relative="1" as="geometry">
            <mxPoint x="656" y="230" as="sourcePoint" />
            <mxPoint x="761" y="400" as="targetPoint" />
          </mxGeometry>
        </mxCell>
        <mxCell id="kZqQIZWyuM2Vv-hapQI7-20" value="用户" style="shape=umlActor;verticalLabelPosition=bottom;verticalAlign=top;html=1;outlineConnect=0;" parent="1" vertex="1">
          <mxGeometry x="441" y="10" width="30" height="60" as="geometry" />
        </mxCell>
        <mxCell id="kZqQIZWyuM2Vv-hapQI7-22" style="edgeStyle=orthogonalEdgeStyle;rounded=0;orthogonalLoop=1;jettySize=auto;html=1;entryX=0.459;entryY=0;entryDx=0;entryDy=0;entryPerimeter=0;" parent="1" source="kZqQIZWyuM2Vv-hapQI7-20" target="kZqQIZWyuM2Vv-hapQI7-9" edge="1">
          <mxGeometry relative="1" as="geometry">
            <mxPoint x="456" y="180" as="targetPoint" />
          </mxGeometry>
        </mxCell>
        <mxCell id="kZqQIZWyuM2Vv-hapQI7-24" value="2、校验token" style="text;html=1;align=center;verticalAlign=middle;resizable=0;points=[];autosize=1;strokeColor=none;fillColor=none;" parent="1" vertex="1">
          <mxGeometry x="190" y="250" width="100" height="30" as="geometry" />
        </mxCell>
        <mxCell id="kZqQIZWyuM2Vv-hapQI7-25" value="1、请求业务接口" style="text;html=1;align=center;verticalAlign=middle;resizable=0;points=[];autosize=1;strokeColor=none;fillColor=none;" parent="1" vertex="1">
          <mxGeometry x="460" y="108" width="110" height="30" as="geometry" />
        </mxCell>
        <mxCell id="kZqQIZWyuM2Vv-hapQI7-27" style="edgeStyle=orthogonalEdgeStyle;rounded=0;orthogonalLoop=1;jettySize=auto;html=1;exitX=0.75;exitY=0;exitDx=0;exitDy=0;entryX=0.2;entryY=1.025;entryDx=0;entryDy=0;entryPerimeter=0;" parent="1" source="kZqQIZWyuM2Vv-hapQI7-2" target="kZqQIZWyuM2Vv-hapQI7-9" edge="1">
          <mxGeometry relative="1" as="geometry" />
        </mxCell>
        <mxCell id="kZqQIZWyuM2Vv-hapQI7-28" value="3、返回基本用户信息" style="text;html=1;align=center;verticalAlign=middle;resizable=0;points=[];autosize=1;strokeColor=none;fillColor=none;" parent="1" vertex="1">
          <mxGeometry x="320" y="250" width="140" height="30" as="geometry" />
        </mxCell>
        <mxCell id="kZqQIZWyuM2Vv-hapQI7-29" value="4、业务调用" style="text;html=1;align=center;verticalAlign=middle;resizable=0;points=[];autosize=1;strokeColor=none;fillColor=none;" parent="1" vertex="1">
          <mxGeometry x="570" y="250" width="90" height="30" as="geometry" />
        </mxCell>
      </root>
    </mxGraphModel>
  </diagram>
  <diagram id="k8QLL-PzJMvZjzErkNiB" name="灰度分流-userId">
    <mxGraphModel dx="2058" dy="1188" grid="0" gridSize="10" guides="1" tooltips="1" connect="1" arrows="1" fold="1" page="1" pageScale="1" pageWidth="827" pageHeight="1169" math="0" shadow="0">
      <root>
        <mxCell id="0" />
        <mxCell id="1" parent="0" />
        <mxCell id="Kg1hxVuor2k0rtEEVR-2-1" value="认证服务" style="rounded=0;whiteSpace=wrap;html=1;fillColor=#ffe6cc;strokeColor=#d79b00;" parent="1" vertex="1">
          <mxGeometry x="201" y="460" width="130" height="40" as="geometry" />
        </mxCell>
        <mxCell id="Kg1hxVuor2k0rtEEVR-2-2" style="edgeStyle=orthogonalEdgeStyle;rounded=0;orthogonalLoop=1;jettySize=auto;html=1;entryX=0.5;entryY=0;entryDx=0;entryDy=0;exitX=0.133;exitY=1.065;exitDx=0;exitDy=0;exitPerimeter=0;" parent="1" source="Kg1hxVuor2k0rtEEVR-2-3" target="Kg1hxVuor2k0rtEEVR-2-1" edge="1">
          <mxGeometry relative="1" as="geometry" />
        </mxCell>
        <mxCell id="Kg1hxVuor2k0rtEEVR-2-3" value="gateway" style="rounded=0;whiteSpace=wrap;html=1;fillColor=#dae8fc;strokeColor=#6c8ebf;" parent="1" vertex="1">
          <mxGeometry x="201" y="330" width="490" height="40" as="geometry" />
        </mxCell>
        <mxCell id="Kg1hxVuor2k0rtEEVR-2-4" value="灰度服务" style="rounded=0;whiteSpace=wrap;html=1;fillColor=#f5f5f5;strokeColor=#666666;fontColor=#333333;" parent="1" vertex="1">
          <mxGeometry x="561" y="460" width="130" height="40" as="geometry" />
        </mxCell>
        <mxCell id="Kg1hxVuor2k0rtEEVR-2-5" value="" style="endArrow=classic;html=1;rounded=0;entryX=0.5;entryY=0;entryDx=0;entryDy=0;fillColor=#008a00;strokeColor=#005700;" parent="1" target="Kg1hxVuor2k0rtEEVR-2-4" edge="1">
          <mxGeometry width="50" height="50" relative="1" as="geometry">
            <mxPoint x="626" y="370" as="sourcePoint" />
            <mxPoint x="731" y="540" as="targetPoint" />
          </mxGeometry>
        </mxCell>
        <mxCell id="Kg1hxVuor2k0rtEEVR-2-6" value="用户" style="shape=umlActor;verticalLabelPosition=bottom;verticalAlign=top;html=1;outlineConnect=0;" parent="1" vertex="1">
          <mxGeometry x="411" y="150" width="30" height="60" as="geometry" />
        </mxCell>
        <mxCell id="Kg1hxVuor2k0rtEEVR-2-7" style="edgeStyle=orthogonalEdgeStyle;rounded=0;orthogonalLoop=1;jettySize=auto;html=1;entryX=0.459;entryY=0;entryDx=0;entryDy=0;entryPerimeter=0;" parent="1" source="Kg1hxVuor2k0rtEEVR-2-6" target="Kg1hxVuor2k0rtEEVR-2-3" edge="1">
          <mxGeometry relative="1" as="geometry">
            <mxPoint x="426" y="320" as="targetPoint" />
          </mxGeometry>
        </mxCell>
        <mxCell id="Kg1hxVuor2k0rtEEVR-2-8" value="2、校验token" style="text;html=1;align=center;verticalAlign=middle;resizable=0;points=[];autosize=1;strokeColor=none;fillColor=none;" parent="1" vertex="1">
          <mxGeometry x="170" y="400" width="100" height="30" as="geometry" />
        </mxCell>
        <mxCell id="Kg1hxVuor2k0rtEEVR-2-9" value="1、请求业务接口" style="text;html=1;align=center;verticalAlign=middle;resizable=0;points=[];autosize=1;strokeColor=none;fillColor=none;" parent="1" vertex="1">
          <mxGeometry x="430" y="248" width="110" height="30" as="geometry" />
        </mxCell>
        <mxCell id="Kg1hxVuor2k0rtEEVR-2-10" style="edgeStyle=orthogonalEdgeStyle;rounded=0;orthogonalLoop=1;jettySize=auto;html=1;exitX=0.75;exitY=0;exitDx=0;exitDy=0;entryX=0.2;entryY=1.025;entryDx=0;entryDy=0;entryPerimeter=0;" parent="1" source="Kg1hxVuor2k0rtEEVR-2-1" target="Kg1hxVuor2k0rtEEVR-2-3" edge="1">
          <mxGeometry relative="1" as="geometry" />
        </mxCell>
        <mxCell id="Kg1hxVuor2k0rtEEVR-2-11" value="3、返回用户信息(是否灰度)" style="text;html=1;align=center;verticalAlign=middle;resizable=0;points=[];autosize=1;strokeColor=none;fillColor=none;" parent="1" vertex="1">
          <mxGeometry x="275" y="400" width="170" height="30" as="geometry" />
        </mxCell>
        <mxCell id="Kg1hxVuor2k0rtEEVR-2-12" value="4、业务调用" style="text;html=1;align=center;verticalAlign=middle;resizable=0;points=[];autosize=1;strokeColor=none;fillColor=none;" parent="1" vertex="1">
          <mxGeometry x="460" y="400" width="90" height="30" as="geometry" />
        </mxCell>
        <mxCell id="Kg1hxVuor2k0rtEEVR-2-13" value="商用服务" style="rounded=0;whiteSpace=wrap;html=1;fillColor=#d5e8d4;strokeColor=#82b366;" parent="1" vertex="1">
          <mxGeometry x="393" y="461" width="130" height="40" as="geometry" />
        </mxCell>
        <mxCell id="Kg1hxVuor2k0rtEEVR-2-14" value="" style="endArrow=classic;html=1;rounded=0;entryX=0.5;entryY=0;entryDx=0;entryDy=0;fillColor=#008a00;strokeColor=#005700;" parent="1" target="Kg1hxVuor2k0rtEEVR-2-13" edge="1">
          <mxGeometry width="50" height="50" relative="1" as="geometry">
            <mxPoint x="458" y="371" as="sourcePoint" />
            <mxPoint x="563" y="541" as="targetPoint" />
          </mxGeometry>
        </mxCell>
        <mxCell id="Kg1hxVuor2k0rtEEVR-2-17" value="4、业务调用" style="text;html=1;align=center;verticalAlign=middle;resizable=0;points=[];autosize=1;strokeColor=none;fillColor=none;" parent="1" vertex="1">
          <mxGeometry x="630" y="400" width="90" height="30" as="geometry" />
        </mxCell>
      </root>
    </mxGraphModel>
  </diagram>
</mxfile>
